<svg xmlns="http://www.w3.org/2000/svg" width="36" height="36" viewBox="0 0 36 36" fill="none"><path d="M16.1223 14.3952C16.822 14.3952 17.5059 14.1864 18.0877 13.7952C18.6695 13.404 19.1229 12.848 19.3906 12.1974C19.6584 11.5469 19.7285 10.831 19.592 10.1404C19.4555 9.44975 19.1185 8.81537 18.6238 8.31745C18.129 7.81954 17.4987 7.48045 16.8124 7.34308C16.1262 7.20571 15.4149 7.27621 14.7685 7.54568C14.1221 7.81515 13.5696 8.27148 13.1808 8.85697C12.7921 9.44245 12.5847 10.1308 12.5847 10.835C12.5846 11.3025 12.676 11.7655 12.8538 12.1975C13.0315 12.6295 13.2921 13.022 13.6206 13.3526C13.9492 13.6832 14.3392 13.9455 14.7684 14.1244C15.1977 14.3033 15.6577 14.3953 16.1223 14.3952Z" fill="#F05B2F"></path><path d="M23.941 15.2715H16.9924C16.0723 15.1552 15.1381 15.2375 14.2521 15.5128C13.3661 15.7882 12.5485 16.2503 11.8538 16.8684C11.159 17.4865 10.6031 18.2465 10.2229 19.0977C9.84273 19.9489 9.64704 20.8719 9.6489 21.8051C9.6489 22.7471 13.9954 23.5135 16.191 23.5135C19.8031 23.5135 22.733 22.6877 22.733 21.8051C22.734 20.6797 22.4468 19.5731 21.8992 18.5919H23.9426C24.1646 18.6008 24.3862 18.5646 24.5939 18.4853C24.8017 18.4059 24.9914 18.2852 25.1516 18.1303C25.3119 17.9754 25.4394 17.7894 25.5265 17.5837C25.6136 17.378 25.6585 17.1566 25.6585 16.933C25.6585 16.7094 25.6136 16.4881 25.5265 16.2823C25.4394 16.0766 25.3119 15.8907 25.1516 15.7358C24.9914 15.5808 24.8017 15.4601 24.5939 15.3808C24.3862 15.3014 24.1646 15.2652 23.9426 15.2742L23.941 15.2715Z" fill="#F05B2F"></path><path fill-rule="evenodd" clip-rule="evenodd" d="M30.4899 3H4.74258C3.85316 3.00114 3.00054 3.35747 2.37198 3.99077C1.74341 4.62407 1.39028 5.48254 1.39014 6.37766V24.2685C1.39014 25.1637 1.74321 26.0222 2.37181 26.6556C3.00041 27.2889 3.85311 27.6452 4.74258 27.6462H30.4899C31.38 27.6459 32.2334 27.2899 32.8628 26.6566C33.4921 26.0232 33.8458 25.1642 33.8461 24.2685V6.37766C33.8462 5.93408 33.7594 5.49483 33.5908 5.085C33.4221 4.67517 33.1749 4.3028 32.8632 3.98914C32.5516 3.67548 32.1816 3.42668 31.7743 3.25697C31.3671 3.08725 30.9307 2.99993 30.4899 3ZM30.9092 24.2674C30.9092 24.3228 30.8984 24.3777 30.8773 24.4289C30.8562 24.48 30.8253 24.5265 30.7864 24.5657C30.7475 24.6048 30.7012 24.6358 30.6504 24.657C30.5995 24.6781 30.545 24.689 30.4899 24.6889H4.74258C4.68758 24.6889 4.63311 24.678 4.5823 24.6568C4.53149 24.6357 4.48533 24.6046 4.44644 24.5655C4.40755 24.5263 4.37671 24.4799 4.35566 24.4287C4.33461 24.3776 4.3238 24.3228 4.3238 24.2674V6.37766C4.3238 6.26583 4.36788 6.15857 4.44641 6.07944C4.52493 6.00032 4.63146 5.9558 4.74258 5.95566H30.4899C30.6011 5.95566 30.7078 6.00012 30.7864 6.07926C30.8651 6.1584 30.9092 6.26574 30.9092 6.37766V24.2674Z" fill="#F05B2F"></path><path d="M8.75062 28.7643H8.60109C7.82628 28.7643 7.08321 29.0741 6.53533 29.6254C5.98746 30.1768 5.67967 30.9247 5.67967 31.7044V33.243H11.6726V31.7044C11.6726 31.3183 11.597 30.9359 11.4501 30.5792C11.3033 30.2224 11.0881 29.8983 10.8167 29.6252C10.5454 29.3522 10.2233 29.1357 9.86878 28.988C9.51427 28.8402 9.13431 28.7642 8.75062 28.7643Z" fill="#F05B2F"></path><path d="M18.1976 28.7643H18.0481C17.6644 28.7642 17.2845 28.8402 16.93 28.988C16.5754 29.1357 16.2533 29.3522 15.982 29.6253C15.7107 29.8983 15.4954 30.2224 15.3486 30.5792C15.2017 30.9359 15.1261 31.3183 15.1261 31.7044V33.243H21.1243V31.7044C21.1243 31.3179 21.0485 30.9352 20.9013 30.5781C20.7541 30.2211 20.5385 29.8968 20.2666 29.6237C19.9948 29.3506 19.6722 29.1342 19.3172 28.9867C18.9621 28.8392 18.5817 28.7637 18.1976 28.7643Z" fill="#F05B2F"></path><path d="M27.4999 28.7643H27.6499C28.4248 28.7643 29.1678 29.0741 29.7157 29.6254C30.2636 30.1768 30.5714 30.9247 30.5714 31.7044V33.243H24.5785V31.7044C24.5785 30.9247 24.8863 30.1768 25.4341 29.6254C25.982 29.0741 26.7251 28.7643 27.4999 28.7643Z" fill="#F05B2F"></path></svg>