<svg xmlns="http://www.w3.org/2000/svg" width="36" height="36" viewBox="0 0 36 36" fill="none"><path fill-rule="evenodd" clip-rule="evenodd" d="M29.6393 3.33817C29.6083 2.98683 29.3758 2.682 29.0452 2.56317L29.0555 2.5735C28.7197 2.45467 28.3477 2.53733 28.0997 2.78533L24.2453 6.63967C24.0542 6.83083 23.9612 7.08917 23.9818 7.35783L24.2453 10.4888L17.8645 16.8697C17.508 17.2262 17.508 17.7997 17.8645 18.1562C18.0402 18.337 18.2727 18.4248 18.5052 18.4248C18.7377 18.4248 18.9702 18.3318 19.1458 18.1562L25.5267 11.7753L28.6577 12.0388H28.7352C28.9728 12.0388 29.2053 11.9407 29.3758 11.7702L33.2302 7.91583C33.4833 7.66267 33.5608 7.29067 33.442 6.96C33.3232 6.62417 33.0183 6.39683 32.667 6.36583L29.877 6.12817L29.6393 3.33817ZM18.5 20.2228C17.7715 20.2228 17.0895 19.9438 16.5728 19.4272C16.0613 18.9105 15.7772 18.2285 15.7772 17.5C15.7772 16.7715 16.0562 16.0895 16.5728 15.5728L19.4558 12.6898C19.1458 12.6278 18.8255 12.5968 18.5 12.5968C15.7978 12.5968 13.5968 14.7978 13.5968 17.5C13.5968 20.2022 15.7978 22.4032 18.5 22.4032C21.2022 22.4032 23.4032 20.2022 23.4032 17.5C23.4032 17.1745 23.3722 16.8542 23.3102 16.5442L20.4272 19.4272C19.9105 19.9387 19.2285 20.2228 18.5 20.2228ZM11.7782 17.5C11.7782 13.7955 14.7955 10.7782 18.5 10.7782L18.5052 10.7833C19.3577 10.7833 20.174 10.9435 20.9232 11.2328L22.3647 9.79133L22.1993 7.828C21.0523 7.38883 19.8072 7.146 18.5052 7.146C12.796 7.146 8.15117 11.7908 8.15117 17.5C8.15117 23.2092 12.796 27.854 18.5052 27.854C24.2143 27.854 28.8592 23.2092 28.8592 17.5C28.8592 16.198 28.6163 14.9528 28.1772 13.8058L26.2138 13.6405L24.7723 15.082C25.0617 15.8312 25.2218 16.6475 25.2218 17.5C25.2218 21.2045 22.2045 24.2218 18.5 24.2218C14.7955 24.2218 11.7782 21.2045 11.7782 17.5ZM3 17.5C3 26.0457 9.95433 33 18.5 33V32.9948C27.0457 32.9948 34 26.0405 34 17.4948C34 15.2112 33.504 13.0412 32.6153 11.0882L30.6623 13.0412C30.466 13.2375 30.2438 13.4028 30.0062 13.5268C30.4402 14.772 30.6727 16.105 30.6727 17.4948C30.6727 24.2012 25.2115 29.6623 18.5052 29.6623C11.7988 29.6623 6.33767 24.2012 6.33767 17.4948C6.33767 10.7885 11.7937 5.32733 18.5052 5.32733C19.8898 5.32733 21.228 5.565 22.4732 5.99383C22.5972 5.75617 22.7573 5.534 22.9537 5.33767L24.9067 3.38467C22.9537 2.496 20.7837 2 18.5 2C9.95433 2 3 8.95433 3 17.5Z" fill="#F05B2F"></path></svg>