<svg xmlns="http://www.w3.org/2000/svg" width="36" height="36" viewBox="0 0 36 36" fill="none"><path fill-rule="evenodd" clip-rule="evenodd" d="M34 17.8359C34 26.7631 26.7631 34 17.8359 34C8.90877 34 1.67188 26.7631 1.67188 17.8359C1.67188 8.90877 8.90877 1.67188 17.8359 1.67188C26.7631 1.67188 34 8.90877 34 17.8359ZM17.7934 7.46654C13.0577 7.46654 9.05048 10.5959 7.73133 14.9016C7.58331 15.3848 7.07165 15.6565 6.5885 15.5084C6.10536 15.3604 5.83369 14.8488 5.98171 14.3656C7.52978 9.31263 12.2311 5.63664 17.7934 5.63664C23.3557 5.63664 28.0571 9.31263 29.6051 14.3656C29.7532 14.8488 29.4815 15.3604 28.9984 15.5084C28.5152 15.6565 28.0035 15.3848 27.8555 14.9016C26.5364 10.5959 22.5292 7.46654 17.7934 7.46654ZM24.2545 11.3892C24.6146 11.7437 24.6192 12.323 24.2647 12.6831L19.8606 17.157C19.9321 17.3703 19.9708 17.5986 19.9708 17.836C19.9708 19.015 19.015 19.9708 17.8359 19.9708C16.6569 19.9708 15.7011 19.015 15.7011 17.836C15.7011 16.6569 16.6569 15.7011 17.8359 15.7011C18.1017 15.7011 18.3562 15.7497 18.5909 15.8384L22.9606 11.3994C23.3151 11.0393 23.8944 11.0348 24.2545 11.3892Z" fill="#F05B2F"></path></svg>