<svg xmlns="http://www.w3.org/2000/svg" width="36" height="36" viewBox="0 0 36 36" fill="none"><path d="M20.6089 18.2272C20.3583 18.1163 20.1029 18.0139 19.8426 17.92C19.2335 17.6972 18.6075 17.5236 17.9707 17.401C17.9654 17.401 17.9579 17.401 17.9526 17.3975C17.6373 17.3358 17.3126 17.2846 16.9896 17.2497C16.9761 17.2477 16.9625 17.2465 16.9489 17.2462C16.765 17.2264 16.5782 17.2107 16.3926 17.1985C16.207 17.1863 16.0045 17.1752 15.8107 17.1717C15.7258 17.1717 15.6414 17.1682 15.5565 17.1682C15.3237 17.1682 15.091 17.1752 14.8582 17.1892C14.8122 17.1892 14.7645 17.195 14.7186 17.1985C14.5318 17.209 14.3409 17.2246 14.1559 17.2462C14.1454 17.2462 14.1349 17.2462 14.1239 17.2497C14.0733 17.2549 14.0255 17.2619 13.9761 17.2671C13.7008 17.3003 13.4291 17.3463 13.1614 17.3975C12.5178 17.5208 11.8852 17.696 11.2698 17.9212C10.9573 18.0341 10.6501 18.1592 10.3504 18.2971C8.76808 19.0174 7.35286 20.0589 6.19461 21.3554C5.94401 21.6324 5.70757 21.9193 5.4853 22.216C5.06701 22.7769 4.69568 23.3712 4.37507 23.9931C3.55461 25.5854 3.08589 27.3354 3.00067 29.1247C2.99136 29.3277 2.98438 29.532 2.98438 29.7374C2.98438 30.1395 3.40275 30.5241 4.09635 30.8808C6.50882 32.1179 12.2805 33 15.5559 33C22.4983 33 28.1245 31.4243 28.1245 29.7374C28.1249 27.2963 27.4144 24.9078 26.0797 22.8638C24.7451 20.8198 22.8441 19.2087 20.6089 18.2272Z" fill="#F05B2F"></path><path d="M20.2859 3.91703C19.3878 3.04571 18.2667 2.43921 17.046 2.16439C15.8722 1.90143 14.6496 1.95471 13.5031 2.31874C12.3566 2.68278 11.3273 3.34455 10.5202 4.23649C10.462 4.29991 10.4073 4.36335 10.3526 4.42852C9.31573 5.66081 8.75068 7.22154 8.75835 8.832C8.76603 10.4425 9.34593 11.9977 10.3945 13.2201C10.4474 13.2818 10.5004 13.3435 10.5551 13.4034C10.7654 13.6333 10.9926 13.8473 11.2347 14.0435C11.3726 14.1564 11.5152 14.264 11.6618 14.3647C11.8846 14.5232 12.1179 14.6665 12.3601 14.7935C12.6624 14.9558 12.9768 15.0945 13.3004 15.2084C13.5201 15.287 13.7441 15.3531 13.9713 15.4062C14.0417 15.4254 14.1121 15.4411 14.1831 15.4551L14.2233 15.4644C14.4036 15.4994 14.5852 15.5279 14.7726 15.5471H14.776C14.8022 15.5505 14.829 15.5523 14.8552 15.5558C15.0871 15.581 15.3202 15.5934 15.5534 15.593C15.8134 15.593 16.0732 15.5777 16.3314 15.5471H16.3349C16.3704 15.5436 16.4076 15.5383 16.4425 15.5331C16.5892 15.5156 16.7335 15.4923 16.879 15.4627L16.9104 15.4569C17.2155 15.3943 17.5162 15.3119 17.8105 15.2102L17.9694 15.1519C18.4929 14.9529 18.9891 14.6884 19.4462 14.3647C20.2361 13.8143 20.8999 13.1023 21.3936 12.2757C21.8873 11.4492 22.1995 10.5271 22.3095 9.57068C22.4196 8.61426 22.325 7.64535 22.032 6.7283C21.7389 5.81124 21.2542 4.96702 20.61 4.25162C20.5064 4.13757 20.397 4.02468 20.2859 3.91703Z" fill="#F05B2F"></path><path fill-rule="evenodd" clip-rule="evenodd" d="M28.9121 10.1852C29.558 10.1852 30.0816 10.7087 30.0816 11.3546V18.1914C30.0816 18.8373 29.558 19.3609 28.9121 19.3609C28.2662 19.3609 27.7427 18.8373 27.7427 18.1914V11.3546C27.7427 10.7087 28.2662 10.1852 28.9121 10.1852Z" fill="#F05B2F"></path><path fill-rule="evenodd" clip-rule="evenodd" d="M33.5 14.773C33.5 15.4189 32.9764 15.9425 32.3305 15.9425H25.4937C24.8478 15.9425 24.3242 15.4189 24.3242 14.773C24.3242 14.1271 24.8478 13.6035 25.4937 13.6035H32.3305C32.9764 13.6035 33.5 14.1271 33.5 14.773Z" fill="#F05B2F"></path></svg>