<svg xmlns="http://www.w3.org/2000/svg" width="36" height="36" viewBox="0 0 36 36" fill="none"><path d="M27.6751 19.8196C27.4451 19.7178 27.2107 19.6238 26.9719 19.5377C26.4131 19.3332 25.8387 19.174 25.2544 19.0614C25.2496 19.0614 25.2426 19.0614 25.2378 19.0582C24.9484 19.0016 24.6505 18.9547 24.3542 18.9226C24.3418 18.9208 24.3293 18.9197 24.3168 18.9194C24.1481 18.9012 23.9767 18.8868 23.8064 18.8756C23.6361 18.8644 23.4503 18.8543 23.2725 18.8511C23.1946 18.8511 23.1172 18.8479 23.0392 18.8479C22.8257 18.8479 22.6121 18.8543 22.3985 18.8671C22.3564 18.8671 22.3126 18.8724 22.2704 18.8756C22.099 18.8852 21.9239 18.8996 21.7541 18.9194C21.7445 18.9194 21.7349 18.9194 21.7248 18.9226C21.6783 18.9274 21.6345 18.9338 21.5891 18.9386C21.3366 18.969 21.0873 19.0112 20.8417 19.0582C20.2511 19.1714 19.6707 19.3321 19.106 19.5387C18.8193 19.6423 18.5374 19.7571 18.2624 19.8836C16.8106 20.5446 15.5121 21.5002 14.4493 22.6898C14.2194 22.9439 14.0025 23.2071 13.7985 23.4794C13.4147 23.994 13.074 24.5394 12.7798 25.11C12.027 26.571 11.597 28.1767 11.5188 29.8184C11.5102 30.0047 11.5038 30.1921 11.5038 30.3806C11.5038 30.7495 11.8877 31.1024 12.5241 31.4297C14.7376 32.5648 20.0334 33.3742 23.0387 33.3742C29.4086 33.3742 34.5709 31.9284 34.5709 30.3806C34.5712 28.1407 33.9193 25.9492 32.6947 24.0738C31.4702 22.1983 29.7259 20.7201 27.6751 19.8196Z" fill="#F05B2F"></path><path d="M27.3786 6.68937C26.5546 5.8899 25.5259 5.33342 24.4058 5.08126C23.3288 4.83998 22.2071 4.88886 21.1551 5.22288C20.1032 5.5569 19.1587 6.16409 18.4182 6.98249C18.3648 7.04068 18.3146 7.09888 18.2644 7.15868C17.313 8.28936 16.7946 9.72139 16.8016 11.1991C16.8087 12.6767 17.3408 14.1038 18.3029 15.2253C18.3514 15.2819 18.4 15.3385 18.4502 15.3935C18.6432 15.6045 18.8516 15.8008 19.0738 15.9808C19.2003 16.0844 19.3311 16.1831 19.4657 16.2755C19.6701 16.421 19.8842 16.5525 20.1064 16.669C20.3837 16.8179 20.6722 16.9452 20.9691 17.0497C21.1707 17.1218 21.3762 17.1824 21.5847 17.2312C21.6493 17.2488 21.7139 17.2632 21.7791 17.276L21.8159 17.2846C21.9814 17.3166 22.148 17.3428 22.3199 17.3604H22.3231C22.3471 17.3636 22.3717 17.3652 22.3957 17.3684C22.6085 17.3915 22.8224 17.4029 23.0364 17.4025C23.275 17.4025 23.5133 17.3885 23.7502 17.3604H23.7534C23.786 17.3572 23.8202 17.3524 23.8522 17.3476C23.9867 17.3316 24.1191 17.3102 24.2526 17.283L24.2814 17.2776C24.5614 17.2202 24.8373 17.1446 25.1074 17.0513L25.2531 16.9979C25.7335 16.8152 26.1888 16.5725 26.6082 16.2755C27.3329 15.7705 27.942 15.1172 28.395 14.3588C28.8479 13.6004 29.1344 12.7544 29.2354 11.8768C29.3364 10.9993 29.2496 10.1103 28.9807 9.26882C28.7118 8.42739 28.2671 7.65278 27.676 6.99637C27.5809 6.89172 27.4806 6.78814 27.3786 6.68937Z" fill="#F05B2F"></path><path d="M13.3613 19.6676C13.1922 19.5927 13.0198 19.5236 12.8442 19.4602C12.4332 19.3099 12.0107 19.1928 11.581 19.11C11.5774 19.11 11.5723 19.11 11.5688 19.1076C11.356 19.066 11.1369 19.0315 10.9189 19.0079C10.9098 19.0066 10.9007 19.0057 10.8914 19.0055C10.7674 18.9922 10.6413 18.9816 10.5161 18.9733C10.3908 18.9651 10.2541 18.9576 10.1234 18.9553C10.0661 18.9553 10.0091 18.9529 9.95179 18.9529C9.79473 18.9529 9.63766 18.9576 9.48059 18.9671C9.44957 18.9671 9.41737 18.971 9.38635 18.9733C9.2603 18.9804 9.13151 18.991 9.00664 19.0055C8.99957 19.0055 8.9925 19.0055 8.98504 19.0079C8.95088 19.0114 8.91868 19.0161 8.8853 19.0197C8.69957 19.0421 8.51619 19.0731 8.33557 19.1076C7.90122 19.1909 7.47431 19.3091 7.059 19.461C6.84813 19.5372 6.6408 19.6216 6.43858 19.7147C5.37079 20.2008 4.41576 20.9036 3.63413 21.7786C3.46502 21.9655 3.30547 22.1591 3.15547 22.3593C2.8732 22.7378 2.62261 23.1389 2.40625 23.5585C1.85258 24.6331 1.53628 25.8141 1.47877 27.0215C1.47248 27.1585 1.46777 27.2964 1.46777 27.435C1.46777 27.7063 1.7501 27.9659 2.21817 28.2066C3.84617 29.0414 7.74106 29.6367 9.9514 29.6367C14.6363 29.6367 18.4331 28.5733 18.4331 27.435C18.4333 25.7876 17.9539 24.1758 17.0532 22.7965C16.1525 21.4171 14.8697 20.3299 13.3613 19.6676Z" fill="#F05B2F"></path><path d="M13.1436 10.0107C12.5375 9.42267 11.7809 9.01339 10.9572 8.82793C10.1651 8.65048 9.34003 8.68643 8.56635 8.93209C7.79266 9.17775 7.09803 9.62434 6.55338 10.2262C6.51411 10.269 6.4772 10.3119 6.44029 10.3558C5.74058 11.1874 5.35927 12.2406 5.36445 13.3274C5.36963 14.4142 5.76096 15.4638 6.46856 16.2887C6.50429 16.3303 6.54003 16.3719 6.57694 16.4123C6.71887 16.5675 6.87218 16.7119 7.03558 16.8443C7.12864 16.9205 7.22484 16.9931 7.3238 17.061C7.47415 17.168 7.63157 17.2647 7.795 17.3504C7.999 17.4599 8.21115 17.5536 8.42955 17.6304C8.57781 17.6835 8.72898 17.728 8.8823 17.7639C8.92982 17.7769 8.97733 17.7875 9.02523 17.7969L9.05233 17.8032C9.17406 17.8268 9.29657 17.846 9.42301 17.859H9.42536C9.44303 17.8613 9.4611 17.8625 9.47877 17.8648C9.63526 17.8818 9.79256 17.8902 9.94997 17.89C10.1254 17.89 10.3007 17.8796 10.475 17.859H10.4773C10.5013 17.8566 10.5264 17.8531 10.55 17.8495C10.6489 17.8378 10.7463 17.822 10.8445 17.802L10.8657 17.7981C11.0716 17.7559 11.2745 17.7002 11.4731 17.6316L11.5803 17.5923C11.9336 17.458 12.2685 17.2795 12.5769 17.061C13.11 16.6896 13.5579 16.2091 13.8911 15.6514C14.2242 15.0936 14.4349 14.4713 14.5092 13.8259C14.5835 13.1805 14.5196 12.5266 14.3219 11.9078C14.1241 11.2889 13.797 10.7192 13.3623 10.2365C13.2924 10.1595 13.2186 10.0833 13.1436 10.0107Z" fill="#F05B2F"></path></svg>